<svg width="189" height="32" viewBox="0 0 189 32" fill="none" xmlns="http://www.w3.org/2000/svg">
<path d="M167.038 30.6006V8.3072H154.478V1.39938H188.86V8.3072H176.261V30.6006H167.038Z" fill="black"/>
<path d="M133.508 31.1109H131.899C114.983 31.1109 112.353 21.6519 112.353 16.471V15.3328C112.353 10.0342 114.63 0.889137 131.899 0.889137H133.508C150.425 0.889137 153.054 8.97443 153.054 12.3891V12.8208H143.36C143.124 12.0358 141.947 7.95395 132.684 7.95395C123.932 7.95395 121.93 11.8789 121.93 15.529V16C121.93 19.4539 124.246 24.0068 132.763 24.0068C142.222 24.0068 143.164 19.4932 143.399 18.8259H153.094V19.2577C153.094 22.9471 150.189 31.1109 133.508 31.1109Z" fill="black"/>
<path d="M98.2875 18.6689L92.6356 7.71847L87.2193 18.6689H98.2875ZM104.41 30.6006L101.663 25.2628H83.9616L81.3319 30.6006H72.0299L86.7875 1.39938H98.6407L114.262 30.6006H104.41Z" fill="black"/>
<path d="M39.939 1.39938H70.7102V8.03246H48.9662V12.3498H70.1999V19.0222H48.9662V23.8105H71.1027V30.6006H39.939V1.39938Z" fill="black"/>
<path d="M9.14501 8.03246V13.7628H22.9999C25.6296 13.7628 26.6893 12.5068 26.6893 10.8976V10.8584C26.6893 9.32767 25.6688 8.03246 22.9999 8.03246H9.14501ZM9.14501 20.2389V30.6006H0V1.39938H23.5494C33.2831 1.39938 36.2268 4.77479 36.2268 8.97443V9.44542C36.2268 13.6451 32.7337 15.215 30.8105 15.843C33.7934 16.7065 36.3446 18.7867 36.3446 22.5546V26.8327C36.3446 29.1877 36.6193 29.9334 36.8941 30.4044V30.6006H27.592C27.3173 30.2474 27.1603 29.8156 27.1603 28.7559V25.3805C27.1603 21.8089 25.5903 20.2389 21.0767 20.2389H9.14501Z" fill="black"/>
</svg>
